<svg xmlns="http://www.w3.org/2000/svg" width="1200" height="630" viewBox="0 0 1200 630">
  <rect width="1200" height="630" fill="#f6efe2"/>
  <!-- faint court hint: basket at the bottom -->
  <path d="M 150 630 A 450 450 0 0 1 1050 630" fill="none" stroke="#ece1c8" stroke-width="18"/>
  <circle cx="600" cy="630" r="140" fill="#ece1c8"/>
  <!-- five spots -->
  <g>
    <circle cx="158" cy="528" r="68" fill="none" stroke="#d97706" stroke-width="7" stroke-dasharray="0.1 19" stroke-linecap="round"/>
    <circle cx="166" cy="536" r="46" fill="#5f5546" opacity="0.16"/>
    <circle cx="158" cy="528" r="46" fill="#006437"/>
  </g>
  <g>
    <circle cx="1042" cy="528" r="68" fill="none" stroke="#d97706" stroke-width="7" stroke-dasharray="0.1 19" stroke-linecap="round"/>
    <circle cx="1050" cy="536" r="46" fill="#5f5546" opacity="0.16"/>
    <circle cx="1042" cy="528" r="46" fill="#006437"/>
  </g>
  <g>
    <circle cx="285" cy="252" r="68" fill="none" stroke="#d97706" stroke-width="7" stroke-dasharray="0.1 19" stroke-linecap="round"/>
    <circle cx="293" cy="260" r="46" fill="#5f5546" opacity="0.16"/>
    <circle cx="285" cy="252" r="46" fill="#006437"/>
  </g>
  <g>
    <circle cx="915" cy="252" r="68" fill="none" stroke="#d97706" stroke-width="7" stroke-dasharray="0.1 19" stroke-linecap="round"/>
    <circle cx="923" cy="260" r="46" fill="#5f5546" opacity="0.16"/>
    <circle cx="915" cy="252" r="46" fill="#006437"/>
  </g>
  <g>
    <circle cx="600" cy="128" r="68" fill="none" stroke="#d97706" stroke-width="7" stroke-dasharray="0.1 19" stroke-linecap="round"/>
    <circle cx="608" cy="136" r="46" fill="#5f5546" opacity="0.16"/>
    <circle cx="600" cy="128" r="46" fill="#006437"/>
  </g>
  <!-- the ball, waiting at the top spot -->
  <circle cx="702" cy="96" r="26" fill="#5f5546" opacity="0.16" transform="translate(6 6)"/>
  <circle cx="702" cy="96" r="26" fill="#c2410c"/>
  <path d="M 676 96 H 728 M 702 70 V 122" stroke="#f6efe2" stroke-width="4" fill="none"/>
</svg>
